<svg xmlns="http://www.w3.org/2000/svg" class="ionicon" viewBox="0 0 512 512">
  <defs>
    <linearGradient id="barbell-a" x1="0%" y1="0%" y2="95.386%">
      <stop offset="0%" stop-color="#072142"></stop>
      <stop offset="52.417%" stop-color="#8C2B7A"></stop>
      <stop offset="100%" stop-color="#FF4D5A"></stop>
    </linearGradient>
  </defs>
  <path fill="none" stroke="url(#barbell-a)" stroke-linecap="round" stroke-linejoin="round" stroke-width="32"
    d="M48 256h416 M400 128h0s16 0 16 16v224s0 16 -16 16h0s-16 0 -16 -16v-224s0 -16 16 -16 M112 128h0s16 0 16 16v224s0 16 -16 16h0s-16 0 -16 -16v-224s0 -16 16 -16 M40 192h0s8 0 8 8v112s0 8 -8 8h0s-8 0 -8 -8v-112s0 -8 8 -8 M472 192h0s8 0 8 8v112s0 8 -8 8h0s-8 0 -8 -8v-112s0 -8 8 -8" />
</svg>