<svg xmlns="http://www.w3.org/2000/svg" width="512" height="512" viewBox="0 0 512 512">
  <defs>
    <linearGradient id="megaphone-a" x1="0%" y1="0%" y2="95.386%">
      <stop offset="0%" stop-color="#072142" />
      <stop offset="52.417%" stop-color="#8C2B7A" />
      <stop offset="100%" stop-color="#FF4D5A" />
    </linearGradient>
  </defs>

  <path d="M407.94,52.22S321.3,160,240,160H80a16,16,0,0,0-16,16v96a16,16,0,0,0,16,16H240c81.3,0,167.94,108.23,167.94,108.23,6.06,8,24.06,2.52,24.06-9.83V62C432,49.69,415,43.18,407.94,52.22Z
    M64,256s-16-6-16-32,16-32,16-32
    M448,246s16-4.33,16-22-16-22-16-22
    M144,288V456a8,8,0,0,0,8,8h53a16,16,0,0,0,15.29-20.73C211.91,416.39,192,386.08,192,336h16a16,16,0,0,0,16-16V304a16,16,0,0,0-16-16H192
    M256 160, L256 288
    M112 160, L112 288
    " style="fill:none;stroke:url(#megaphone-a);stroke-linecap:round;stroke-linejoin:round;stroke-width:32px" />
</svg>