<svg xmlns="http://www.w3.org/2000/svg" class="ionicon" viewBox="0 0 512 512">
  <defs>
    <linearGradient id="tech-a" x1="0%" y1="0%" y2="95.386%">
      <stop offset="0%" stop-color="#072142"></stop>
      <stop offset="52.417%" stop-color="#8C2B7A"></stop>
      <stop offset="100%" stop-color="#FF4D5A"></stop>
    </linearGradient>
  </defs>

  <path fill="none" stroke="url(#tech-a)" stroke-linejoin="round" stroke-width="16"
    d="M128 80h256s48 0 48 48v256s0 48 -48 48h-256s-48 0 -48 -48v-256s0 -48 48 -48 M160 144h192s16 0 16 16v192s0 16 -16 16h-192s-16 0 -16 -16v-192s0 -16 16 -16 M256 80V48M336 80V48M176 80V48M256 464v-32M336 464v-32M176 464v-32M432 256h32M432 336h32M432 176h32M48 256h32M48 336h32M48 176h32" />
</svg>